<?xml version="1.0" encoding="UTF-8"?><svg id="a" xmlns="http://www.w3.org/2000/svg" viewBox="0 0 300 300"><defs><style>.b{fill:#f8e800;}.c{fill:#010101;}.d{fill:#1d1d1b;}</style></defs><path class="d" d="M61.08,176.98v-45.72h13.34v5.24c2.3-4.05,8.19-6.62,13.16-6.62,6.53,0,11.22,2.67,13.52,7.18,3.59-5.15,8-7.18,14.17-7.18,8.65,0,16.93,5.06,16.93,17.48v29.62h-13.52v-26.49c0-4.32-2.3-7.73-7.27-7.73s-7.64,3.77-7.64,7.82v26.4h-13.8v-26.49c0-4.32-2.3-7.73-7.36-7.73s-7.54,3.77-7.54,7.91v26.31h-13.98Z"/><path class="d" d="M226.4,150.48l18.21,26.49h-17.11l-10.76-16.1-4.51,4.88v11.22h-13.98V110.37h13.98v36.25l13.89-15.36h18.12l-17.85,19.23Z"/><rect class="c" x="152.96" y="181.56" width="24.07" height="5.94" rx="1.19" ry="1.19"/><path class="c" d="M165,201.78c5.3,0,9.8-3.43,11.41-8.19,.27-.79-.36-1.6-1.19-1.6h-20.44c-.83,0-1.45,.81-1.19,1.6,1.6,4.76,6.1,8.19,11.41,8.19Z"/><g><path class="b" d="M165,129.28c-13.51,0-24.47,10.96-24.47,24.47,0,9.14,7.48,21.31,12.43,21.31h5.33c.46,0,.82-.41,.76-.87l-1.3-9.61c-.19-1.43-.53-2.85-.99-4.22l-.46-1.36c-1.03-3.04-.32-6.41,1.84-8.78l.55-.6c3.4-3.74,9.24-3.87,12.81-.29h0c2.31,2.31,3.15,5.71,2.19,8.84l-.73,2.4c-.36,1.18-.63,2.39-.79,3.62l-1.36,10c-.06,.46,.3,.87,.76,.87h5.47c3.85,0,12.43-12.17,12.43-21.31,0-13.51-10.96-24.47-24.47-24.47Z"/><path class="b" d="M164.24,175.06h1.39c.3,0,.55-.22,.59-.52l1.93-14.24c.05-.36-.23-.68-.59-.68h-5.26c-.36,0-.64,.32-.59,.68l1.93,14.24c.04,.3,.29,.52,.59,.52Z"/></g><path class="b" d="M168.96,125.83h-9.08c-.72,0-1.17-.79-.79-1.41l7.33-12.04c.17-.28,.47-.44,.79-.44h12.98c.81,0,1.23,.97,.68,1.56l-11.24,12.04c-.18,.19-.42,.29-.68,.29Z"/></svg>